<svg viewBox="0 0 136 33" fill="none" xmlns="http://www.w3.org/2000/svg">
    <path d="M46.288 27.968C44.3787 27.968 42.96 27.5467 42.032 26.704C41.1147 25.8507 40.624 24.512 40.56 22.688C40.5493 22.432 40.6187 22.2293 40.768 22.08C40.928 21.92 41.136 21.84 41.392 21.84C41.648 21.84 41.8507 21.9147 42 22.064C42.1493 22.2133 42.2347 22.416 42.256 22.672C42.2987 24.016 42.6187 24.9547 43.216 25.488C43.8133 26.0213 44.8373 26.288 46.288 26.288H50.896C52.4107 26.288 53.4613 25.9947 54.048 25.408C54.6453 24.8107 54.944 23.7653 54.944 22.272C54.944 20.7573 54.6453 19.7067 54.048 19.12C53.4613 18.5227 52.4107 18.224 50.896 18.224H46.512C44.6347 18.224 43.2587 17.7867 42.384 16.912C41.5093 16.0373 41.072 14.6667 41.072 12.8C41.072 10.9333 41.504 9.56267 42.368 8.688C43.2427 7.81333 44.6133 7.376 46.48 7.376H50.96C52.752 7.376 54.08 7.776 54.944 8.576C55.8187 9.376 56.288 10.6347 56.352 12.352C56.3733 12.608 56.304 12.816 56.144 12.976C55.9947 13.1253 55.7867 13.2 55.52 13.2C55.2747 13.2 55.0773 13.1253 54.928 12.976C54.7787 12.8267 54.6933 12.624 54.672 12.368C54.6293 11.1413 54.3307 10.2827 53.776 9.792C53.2213 9.30133 52.2827 9.056 50.96 9.056H46.48C45.0827 9.056 44.112 9.33333 43.568 9.888C43.024 10.432 42.752 11.4027 42.752 12.8C42.752 14.1973 43.024 15.1733 43.568 15.728C44.1227 16.272 45.104 16.544 46.512 16.544H50.896C52.88 16.544 54.3307 17.008 55.248 17.936C56.1653 18.8533 56.624 20.2987 56.624 22.272C56.624 24.2453 56.1653 25.6907 55.248 26.608C54.3307 27.5147 52.88 27.968 50.896 27.968H46.288ZM66.6818 28.016C66.4258 28.016 66.2178 27.9413 66.0578 27.792C65.9084 27.6427 65.8338 27.44 65.8338 27.184V9.04H59.0338C58.7778 9.04 58.5698 8.96533 58.4098 8.816C58.2604 8.66667 58.1858 8.464 58.1858 8.208C58.1858 7.952 58.2604 7.74933 58.4098 7.6C58.5698 7.44 58.7778 7.36 59.0338 7.36H74.3298C74.5858 7.36 74.7884 7.44 74.9378 7.6C75.0871 7.74933 75.1618 7.952 75.1618 8.208C75.1618 8.464 75.0871 8.66667 74.9378 8.816C74.7884 8.96533 74.5858 9.04 74.3298 9.04H67.5138V27.184C67.5138 27.4293 67.4338 27.632 67.2738 27.792C67.1244 27.9413 66.9271 28.016 66.6818 28.016ZM74.5635 27.92C74.0515 27.696 73.8968 27.3227 74.0995 26.8L82.0355 8.032C82.2062 7.59467 82.5208 7.376 82.9795 7.376H83.0755C83.5128 7.38667 83.8222 7.60533 84.0035 8.032L91.9395 26.8C92.1528 27.3227 92.0035 27.696 91.4915 27.92C90.9688 28.1333 90.6062 27.984 90.4035 27.472L88.2755 22.432H77.7955L75.6675 27.472C75.4542 27.984 75.0862 28.1333 74.5635 27.92ZM78.4835 20.752H87.5715L83.0275 10.032L78.4835 20.752ZM99.3693 28.016C99.1133 28.016 98.9053 27.9413 98.7453 27.792C98.5959 27.6427 98.5213 27.44 98.5213 27.184V9.04H91.7213C91.4653 9.04 91.2573 8.96533 91.0973 8.816C90.9479 8.66667 90.8733 8.464 90.8733 8.208C90.8733 7.952 90.9479 7.74933 91.0973 7.6C91.2573 7.44 91.4653 7.36 91.7213 7.36H107.017C107.273 7.36 107.476 7.44 107.625 7.6C107.775 7.74933 107.849 7.952 107.849 8.208C107.849 8.464 107.775 8.66667 107.625 8.816C107.476 8.96533 107.273 9.04 107.017 9.04H100.201V27.184C100.201 27.4293 100.121 27.632 99.9613 27.792C99.8119 27.9413 99.6146 28.016 99.3693 28.016ZM112.278 28C112.011 28 111.803 27.9253 111.654 27.776C111.504 27.6267 111.43 27.4187 111.43 27.152V8.208C111.43 7.94133 111.504 7.73333 111.654 7.584C111.803 7.43467 112.011 7.36 112.278 7.36C112.534 7.36 112.736 7.43467 112.886 7.584C113.035 7.73333 113.11 7.94133 113.11 8.208V27.152C113.11 27.4187 113.035 27.6267 112.886 27.776C112.736 27.9253 112.534 28 112.278 28ZM117.822 27.808C117.374 27.488 117.299 27.0987 117.598 26.64L124.03 17.248L117.95 8.736C117.63 8.29867 117.699 7.90933 118.158 7.568C118.606 7.248 119 7.31733 119.342 7.776L125.134 15.904L131.134 7.76C131.475 7.312 131.87 7.25333 132.318 7.584C132.766 7.91467 132.824 8.304 132.494 8.752L126.19 17.376L132.814 26.624C133.134 27.072 133.064 27.4667 132.606 27.808C132.158 28.128 131.774 28.0587 131.454 27.6L125.07 18.704L118.99 27.584C118.67 28.0427 118.28 28.1173 117.822 27.808Z" fill="#009FB7FF"/>
    <g clip-path="url(#clip0_7_10)">
        <path d="M1.34391 27.0377L8.87169 19.9046C8.34648 18.8841 8.05 17.7267 8.05 16.5C8.05 15.6485 8.19286 14.8303 8.45593 14.0682L1.34098 7.434C1.02131 7.13593 0.5 7.36262 0.5 7.7997V26.6748C0.5 27.1138 1.02526 27.3397 1.34391 27.0377Z" fill="#009FB7FF"/>
        <path d="M15.5 9.05C16.6959 9.05 17.8261 9.3318 18.8276 9.83261L26.0145 2.34627C26.3196 2.02846 26.0943 1.5 25.6538 1.5H6.11285C5.66963 1.5 5.44555 2.03396 5.75603 2.35026L12.82 9.5466C13.6516 9.22585 14.5553 9.05 15.5 9.05Z" fill="#009FB7FF"/>
        <path d="M22.95 16.5C22.95 17.4683 22.7653 18.3934 22.4292 19.2421L30.6561 27.0377C30.9747 27.3397 31.5 27.1138 31.5 26.6748V7.36728C31.5 6.92519 30.9684 6.70061 30.6514 7.00882L22.7332 14.7086C22.8749 15.2824 22.95 15.8824 22.95 16.5Z" fill="#009FB7FF"/>
        <path d="M15.5 23.95C16.4343 23.95 17.3284 23.778 18.1524 23.464L26.0145 31.6537C26.3196 31.9715 26.0943 32.5 25.6538 32.5H6.34622C5.90567 32.5 5.68043 31.9715 5.98552 31.6537L13.6126 23.7088C14.2154 23.8662 14.8479 23.95 15.5 23.95Z" fill="#009FB7FF"/>
        <path d="M18 10.5L12 17.5833H15.4286L14.2857 23L20 15.4167H16.5714L18 10.5Z" fill="#009FB7FF"/>
    </g>

</svg>
